<svg xmlns="http://www.w3.org/2000/svg" width="30" height="21" viewBox="0 0 30 21">
  <defs>
    <style>
      .cls-1 {
        fill-rule: evenodd;
        opacity: 0.6;
      }
    </style>
  </defs>
  <path id="burger.svg" class="cls-1" d="M1259.5,97h27a1.5,1.5,0,0,1,1.5,1.5v1a1.5,1.5,0,0,1-1.5,1.5h-27a1.5,1.5,0,0,1-1.5-1.5v-1A1.5,1.5,0,0,1,1259.5,97Zm0-8h27a1.5,1.5,0,0,1,1.5,1.5v1a1.5,1.5,0,0,1-1.5,1.5h-27a1.5,1.5,0,0,1-1.5-1.5v-1A1.5,1.5,0,0,1,1259.5,89Zm0-9h27a1.5,1.5,0,0,1,1.5,1.5v1a1.5,1.5,0,0,1-1.5,1.5h-27a1.5,1.5,0,0,1-1.5-1.5v-1A1.5,1.5,0,0,1,1259.5,80Z" transform="translate(-1258 -80)"/>
</svg>
